<svg xmlns="http://www.w3.org/2000/svg" xmlns:xlink="http://www.w3.org/1999/xlink" width="110" zoomAndPan="magnify" viewBox="0 0 82.5 35.25" height="47" preserveAspectRatio="xMidYMid meet" version="1.0"><defs><g/><clipPath id="cee0f61860"><path d="M 1.675781 0.640625 L 12 0.640625 L 12 34.183594 L 1.675781 34.183594 Z M 1.675781 0.640625 " clip-rule="nonzero"/></clipPath><clipPath id="011854e515"><path d="M 70 0.640625 L 80.871094 0.640625 L 80.871094 34.183594 L 70 34.183594 Z M 70 0.640625 " clip-rule="nonzero"/></clipPath></defs><g clip-path="url(#cee0f61860)"><path fill="#e1a4c6" d="M 10.9375 4.367188 L 11.863281 4.367188 L 11.863281 0.640625 L 10.9375 0.640625 C 7.871094 0.640625 5.382812 3.144531 5.382812 6.230469 L 5.382812 12.753906 C 5.382812 13.339844 5.109375 13.890625 4.644531 14.242188 L 2.421875 15.921875 C 1.976562 16.257812 1.707031 16.777344 1.683594 17.335938 C 1.660156 17.894531 1.886719 18.433594 2.300781 18.804688 L 4.761719 21.003906 C 5.15625 21.359375 5.382812 21.863281 5.382812 22.398438 L 5.382812 28.59375 C 5.382812 31.679688 7.871094 34.183594 10.9375 34.183594 L 11.863281 34.183594 L 11.863281 30.457031 L 10.9375 30.457031 C 9.914062 30.457031 9.085938 29.621094 9.085938 28.59375 L 9.085938 22.398438 C 9.085938 20.800781 8.40625 19.28125 7.222656 18.21875 L 6.457031 17.535156 L 6.863281 17.226562 C 8.261719 16.167969 9.085938 14.511719 9.085938 12.753906 L 9.085938 6.230469 C 9.085938 5.203125 9.914062 4.367188 10.9375 4.367188 Z M 10.9375 4.367188 " fill-opacity="1" fill-rule="evenodd"/></g><g clip-path="url(#011854e515)"><path fill="#e1a4c6" d="M 71.667969 4.367188 L 70.742188 4.367188 L 70.742188 0.640625 L 71.667969 0.640625 C 74.738281 0.640625 77.222656 3.144531 77.222656 6.230469 L 77.222656 12.753906 C 77.222656 13.339844 77.496094 13.890625 77.964844 14.242188 L 80.183594 15.921875 C 80.628906 16.257812 80.902344 16.777344 80.921875 17.335938 C 80.945312 17.894531 80.71875 18.433594 80.304688 18.804688 L 77.84375 21.003906 C 77.449219 21.359375 77.222656 21.863281 77.222656 22.398438 L 77.222656 28.59375 C 77.222656 31.679688 74.738281 34.183594 71.667969 34.183594 L 70.742188 34.183594 L 70.742188 30.457031 L 71.667969 30.457031 C 72.691406 30.457031 73.519531 29.621094 73.519531 28.59375 L 73.519531 22.398438 C 73.519531 20.800781 74.199219 19.28125 75.386719 18.21875 L 76.152344 17.535156 L 75.742188 17.226562 C 74.34375 16.167969 73.519531 14.511719 73.519531 12.753906 L 73.519531 6.230469 C 73.519531 5.203125 72.691406 4.367188 71.667969 4.367188 Z M 71.667969 4.367188 " fill-opacity="1" fill-rule="evenodd"/></g><g fill="#404040" fill-opacity="1"><g transform="translate(30.267097, 16.048661)"><g><path d="M 6.6875 -8.671875 C 7.632812 -8.671875 8.390625 -8.375 8.953125 -7.78125 C 9.523438 -7.1875 9.8125 -6.390625 9.8125 -5.390625 L 9.8125 0 L 7.09375 0 L 7.09375 -4.625 C 7.09375 -5.125 6.957031 -5.519531 6.6875 -5.8125 C 6.414062 -6.101562 6.046875 -6.25 5.578125 -6.25 C 5.097656 -6.25 4.703125 -6.085938 4.390625 -5.765625 C 4.078125 -5.453125 3.894531 -5.035156 3.84375 -4.515625 L 3.84375 0 L 1.09375 0 L 1.09375 -8.546875 L 3.84375 -8.546875 L 3.84375 -7.15625 C 4.4375 -8.144531 5.382812 -8.648438 6.6875 -8.671875 Z M 6.6875 -8.671875 "/></g></g></g><g fill="#404040" fill-opacity="1"><g transform="translate(40.934231, 16.048661)"><g><path d="M 4.9375 -8.671875 C 6.101562 -8.671875 7.007812 -8.398438 7.65625 -7.859375 C 8.3125 -7.316406 8.644531 -6.554688 8.65625 -5.578125 L 8.65625 0 L 5.984375 0 L 5.984375 -0.984375 C 5.421875 -0.242188 4.546875 0.125 3.359375 0.125 C 2.460938 0.125 1.75 -0.117188 1.21875 -0.609375 C 0.6875 -1.109375 0.421875 -1.753906 0.421875 -2.546875 C 0.421875 -3.367188 0.703125 -4.003906 1.265625 -4.453125 C 1.835938 -4.898438 2.65625 -5.128906 3.71875 -5.140625 L 5.96875 -5.140625 L 5.96875 -5.265625 C 5.96875 -5.691406 5.828125 -6.019531 5.546875 -6.25 C 5.265625 -6.488281 4.847656 -6.609375 4.296875 -6.609375 C 3.523438 -6.609375 2.675781 -6.375 1.75 -5.90625 L 0.96875 -7.703125 C 2.351562 -8.347656 3.675781 -8.671875 4.9375 -8.671875 Z M 4.203125 -1.734375 C 4.640625 -1.734375 5.019531 -1.835938 5.34375 -2.046875 C 5.675781 -2.265625 5.882812 -2.550781 5.96875 -2.90625 L 5.96875 -3.65625 L 4.234375 -3.65625 C 3.410156 -3.65625 3 -3.351562 3 -2.75 C 3 -2.425781 3.101562 -2.175781 3.3125 -2 C 3.519531 -1.820312 3.816406 -1.734375 4.203125 -1.734375 Z M 4.203125 -1.734375 "/></g></g></g><g fill="#404040" fill-opacity="1"><g transform="translate(50.444312, 16.048661)"><g><path d="M 6.078125 -2.359375 L 6.609375 -0.453125 C 5.941406 -0.0664062 5.179688 0.125 4.328125 0.125 C 3.484375 0.125 2.796875 -0.109375 2.265625 -0.578125 C 1.742188 -1.046875 1.484375 -1.710938 1.484375 -2.578125 L 1.484375 -6.359375 L 0.296875 -6.359375 L 0.296875 -8.15625 L 1.484375 -8.15625 L 1.484375 -10.53125 L 4.21875 -10.53125 L 4.21875 -8.171875 L 6.453125 -8.171875 L 6.453125 -6.359375 L 4.21875 -6.359375 L 4.21875 -3.015625 C 4.21875 -2.679688 4.28125 -2.4375 4.40625 -2.28125 C 4.539062 -2.132812 4.742188 -2.066406 5.015625 -2.078125 C 5.265625 -2.078125 5.617188 -2.171875 6.078125 -2.359375 Z M 6.078125 -2.359375 "/></g></g></g><g fill="#404040" fill-opacity="1"><g transform="translate(57.339125, 16.048661)"><g><path d="M 6.78125 -8.671875 C 7.726562 -8.671875 8.484375 -8.375 9.046875 -7.78125 C 9.617188 -7.1875 9.90625 -6.390625 9.90625 -5.390625 L 9.90625 0 L 7.171875 0 L 7.171875 -4.625 C 7.171875 -5.125 7.035156 -5.519531 6.765625 -5.8125 C 6.492188 -6.101562 6.125 -6.25 5.65625 -6.25 C 5.132812 -6.25 4.710938 -6.054688 4.390625 -5.671875 C 4.078125 -5.296875 3.921875 -4.8125 3.921875 -4.21875 L 3.921875 0 L 1.171875 0 L 1.171875 -11.765625 L 3.921875 -11.765625 L 3.921875 -7.140625 C 4.523438 -8.140625 5.476562 -8.648438 6.78125 -8.671875 Z M 6.78125 -8.671875 "/></g></g></g><g fill="#e1a4c6" fill-opacity="1"><g transform="translate(14.476638, 30.911634)"><g><path d="M 8.484375 -2.046875 L 3.625 -2.046875 L 2.828125 0 L -0.078125 0 L 4.703125 -11.09375 L 7.609375 -11.09375 L 12.296875 0 L 9.28125 0 Z M 7.65625 -4.1875 L 6.078125 -8.296875 L 4.453125 -4.1875 Z M 7.65625 -4.1875 "/></g></g></g><g fill="#e1a4c6" fill-opacity="1"><g transform="translate(26.685681, 30.911634)"><g><path d="M 3.9375 -2.359375 L 8.640625 -2.359375 L 8.640625 0 L 1.109375 0 L 1.109375 -11.09375 L 3.9375 -11.09375 Z M 3.9375 -2.359375 "/></g></g></g><g fill="#e1a4c6" fill-opacity="1"><g transform="translate(35.564984, 30.911634)"><g><path d="M 7.21875 0 L 4.296875 0 L -0.015625 -11.09375 L 3 -11.09375 L 5.84375 -2.9375 L 8.671875 -11.09375 L 11.578125 -11.09375 Z M 7.21875 0 "/></g></g></g><g fill="#e1a4c6" fill-opacity="1"><g transform="translate(47.123935, 30.911634)"><g><path d="M 9.796875 -8.875 L 3.9375 -8.875 L 3.9375 -6.671875 L 9.234375 -6.671875 L 9.234375 -4.453125 L 3.9375 -4.453125 L 3.9375 -2.21875 L 9.96875 -2.21875 L 9.96875 0 L 1.109375 0 L 1.109375 -11.09375 L 9.796875 -11.09375 Z M 9.796875 -8.875 "/></g></g></g><g fill="#e1a4c6" fill-opacity="1"><g transform="translate(57.810809, 30.911634)"><g><path d="M 5.375 -11.234375 C 7.03125 -11.234375 8.488281 -10.816406 9.75 -9.984375 L 8.6875 -7.78125 C 8.101562 -8.125 7.476562 -8.398438 6.8125 -8.609375 C 6.15625 -8.828125 5.597656 -8.9375 5.140625 -8.9375 C 4.328125 -8.9375 3.921875 -8.671875 3.921875 -8.140625 C 3.921875 -7.785156 4.117188 -7.503906 4.515625 -7.296875 C 4.921875 -7.085938 5.410156 -6.90625 5.984375 -6.75 C 6.554688 -6.59375 7.128906 -6.40625 7.703125 -6.1875 C 8.285156 -5.976562 8.773438 -5.628906 9.171875 -5.140625 C 9.578125 -4.648438 9.78125 -4.035156 9.78125 -3.296875 C 9.78125 -2.234375 9.363281 -1.398438 8.53125 -0.796875 C 7.695312 -0.203125 6.632812 0.09375 5.34375 0.09375 C 4.425781 0.09375 3.515625 -0.0625 2.609375 -0.375 C 1.710938 -0.695312 0.929688 -1.132812 0.265625 -1.6875 L 1.359375 -3.859375 C 1.921875 -3.367188 2.582031 -2.96875 3.34375 -2.65625 C 4.101562 -2.34375 4.78125 -2.1875 5.375 -2.1875 C 5.832031 -2.1875 6.1875 -2.269531 6.4375 -2.4375 C 6.6875 -2.601562 6.8125 -2.84375 6.8125 -3.15625 C 6.8125 -3.457031 6.664062 -3.710938 6.375 -3.921875 C 6.09375 -4.128906 5.734375 -4.28125 5.296875 -4.375 C 4.859375 -4.476562 4.382812 -4.613281 3.875 -4.78125 C 3.375 -4.957031 2.90625 -5.144531 2.46875 -5.34375 C 2.039062 -5.539062 1.679688 -5.859375 1.390625 -6.296875 C 1.097656 -6.742188 0.953125 -7.269531 0.953125 -7.875 C 0.953125 -8.894531 1.351562 -9.707031 2.15625 -10.3125 C 2.96875 -10.925781 4.039062 -11.234375 5.375 -11.234375 Z M 5.375 -11.234375 "/></g></g></g></svg>