<svg width="90" height="100" viewBox="0 0 90 100" fill="none" xmlns="http://www.w3.org/2000/svg">
<g id="css3">
<path id="polygon2989" d="M89.0875 0L81.0546 89.9895L44.9461 100L8.93705 90.0036L0.912598 0H89.0875Z" fill="#264DE4"/>
<path id="polygon2991" d="M74.1774 84.2593L81.0421 7.35913H45V92.3484L74.1774 84.2593Z" fill="#2965F1"/>
<path id="polygon2993" d="M19.3086 40.7402L20.2979 51.7787H45.0002V40.7402H19.3086Z" fill="#EECADE"/>
<path id="polygon2995" d="M45.0001 18.3977H44.9619H17.3206L18.324 29.4364H45.0001V18.3977Z" fill="#EECADE"/>
<path id="polygon2997" d="M45 80.8931V69.4083L44.9516 69.4212L32.6579 66.1016L31.872 57.2979H25.8982H20.791L22.3375 74.63L44.9492 80.9072L45 80.8931Z" fill="#EECADE"/>
<path id="polygon3005" d="M58.5547 51.7785L57.2734 66.0947L44.9619 69.4177V80.9019L67.5916 74.6301L67.7576 72.7652L70.3516 43.7042L70.6209 40.7401L72.6137 18.3977H44.9619V29.4364H60.5164L59.512 40.7401H44.9619V51.7785H58.5547Z" fill="#E1A4C6"/>
</g>
</svg>
