<svg width="96" height="100" viewBox="0 0 96 100" fill="none" xmlns="http://www.w3.org/2000/svg">
<g id="Github">
<path id="Vector" d="M46.2719 18.75C28.9535 18.75 14.9264 33.0881 14.9264 50.7904C14.9264 64.9683 23.899 76.9434 36.3589 81.1888C37.9261 81.4691 38.5139 80.5079 38.5139 79.6669C38.5139 78.9059 38.4747 76.3827 38.4747 73.6993C30.5991 75.1812 28.5617 71.7369 27.9348 69.9346C27.5821 69.0134 26.054 66.1698 24.7219 65.4089C23.6248 64.8081 22.0575 63.3263 24.6827 63.2862C27.1511 63.2462 28.9143 65.6091 29.502 66.5703C32.3231 71.4165 36.829 70.0547 38.6314 69.2137C38.9057 67.1311 39.7285 65.7293 40.6297 64.9283C33.6553 64.1273 26.3675 61.3638 26.3675 49.1083C26.3675 45.6239 27.5821 42.7403 29.5804 40.4974C29.2669 39.6964 28.1699 36.4123 29.8939 32.0067C29.8939 32.0067 32.519 31.1657 38.5139 35.2909C41.0215 34.57 43.6859 34.2095 46.3502 34.2095C49.0146 34.2095 51.679 34.57 54.1866 35.2909C60.1814 31.1256 62.8066 32.0067 62.8066 32.0067C64.5306 36.4123 63.4335 39.6964 63.1201 40.4974C65.1183 42.7403 66.333 45.5839 66.333 49.1083C66.333 61.4038 59.006 64.1273 52.0316 64.9283C53.1679 65.9295 54.1474 67.852 54.1474 70.8558C54.1474 75.1412 54.1082 78.5855 54.1082 79.6669C54.1082 80.5079 54.696 81.5092 56.2632 81.1888C62.4862 79.042 67.8937 74.9543 71.7245 69.5011C75.5552 64.0479 77.6162 57.5039 77.6173 50.7904C77.6173 33.0881 63.5902 18.75 46.2719 18.75Z" fill="#736666"/>
</g>
</svg>
