<svg xmlns="http://www.w3.org/2000/svg" xmlns:xlink="http://www.w3.org/1999/xlink" width="40" zoomAndPan="magnify" viewBox="0 0 30 30.000001" height="40" preserveAspectRatio="xMidYMid meet" version="1.0"><defs><g/></defs><g fill="#000000" fill-opacity="1"><g transform="translate(7.475279, 21.1078)"><g><path d="M 11.78125 -8.84375 L 12.46875 -7.171875 L 14.34375 -7.03125 L 12.921875 -5.78125 L 13.40625 -3.9375 L 11.78125 -4.96875 L 10.21875 -3.9375 L 10.625 -5.78125 L 9.203125 -7.03125 L 11.078125 -7.171875 Z M 11.78125 -8.4375 L 11.375 -6.734375 L 9.578125 -6.90625 L 11.125 -5.921875 L 10.453125 -4.28125 L 11.78125 -5.515625 L 13.15625 -4.28125 L 12.421875 -5.921875 L 13.953125 -6.90625 L 12.1875 -6.734375 Z M 6.328125 -4.640625 L 7 -2.984375 L 8.875 -2.84375 L 7.453125 -1.578125 L 7.9375 0.25 L 6.328125 -0.78125 L 4.75 0.25 L 5.15625 -1.578125 L 3.734375 -2.84375 L 5.609375 -2.984375 Z M 6.328125 -4.25 L 5.90625 -2.546875 L 4.125 -2.71875 L 5.671875 -1.734375 L 4.984375 -0.09375 L 6.328125 -1.328125 L 7.6875 -0.09375 L 6.953125 -1.734375 L 8.484375 -2.71875 L 6.71875 -2.546875 Z M 4.34375 -12.421875 L 5.34375 -9.953125 L 8.15625 -9.734375 L 6.03125 -7.828125 L 6.734375 -5.078125 L 4.34375 -6.625 L 1.96875 -5.078125 L 2.59375 -7.828125 L 0.4375 -9.734375 L 3.28125 -9.953125 Z M 4.34375 -11.921875 L 3.6875 -9.375 L 0.984375 -9.5625 L 3.25 -8.03125 L 2.28125 -5.5625 L 4.34375 -7.328125 L 6.453125 -5.5625 L 5.390625 -8.03125 L 7.609375 -9.5625 L 4.9375 -9.375 Z M 4.34375 -11.921875 "/></g></g></g></svg>