<svg width="74" height="100" viewBox="0 0 74 100" fill="none" xmlns="http://www.w3.org/2000/svg">
<g id="Group 93">
<path id="Vector" d="M23.8767 77.3358C23.8767 77.3358 20.0554 79.5579 26.5963 80.3099C34.5206 81.2138 38.5703 81.0844 47.303 79.4314C47.303 79.4314 49.599 80.871 52.805 82.118C33.2292 90.5078 8.50057 81.6319 23.8767 77.3358ZM21.4845 66.3873C21.4845 66.3873 17.1985 69.56 23.7443 70.237C32.2092 71.1102 38.894 71.1817 50.4616 68.9543C50.4616 68.9543 52.0615 70.5763 54.5773 71.4634C30.9086 78.3845 4.54609 72.0092 21.4845 66.3873Z" fill="#5382A1"/>
<path id="Vector_2" d="M41.6508 47.8154C46.4744 53.3687 40.3835 58.366 40.3835 58.366C40.3835 58.366 52.6311 52.0435 47.0063 44.1258C41.753 36.7427 37.7241 33.0737 59.5339 20.425C59.5339 20.425 25.2999 28.975 41.6508 47.8151" fill="#E76F00"/>
<path id="Vector_3" d="M67.5415 85.434C67.5415 85.434 70.3694 87.7639 64.427 89.5665C53.1276 92.9897 17.3972 94.0234 7.47133 89.7029C3.90339 88.151 10.5946 85.9968 12.6992 85.5446C14.8942 85.0686 16.1487 85.1575 16.1487 85.1575C12.1806 82.362 -9.4992 90.6462 5.13652 93.0184C45.0498 99.4913 77.8944 90.1039 67.5415 85.434ZM25.7141 55.0436C25.7141 55.0436 7.53966 59.3606 19.2783 60.9279C24.2346 61.5915 34.115 61.4415 43.3184 60.6702C50.84 60.0361 58.3925 58.6869 58.3925 58.6869C58.3925 58.6869 55.7404 59.8227 53.8216 61.1329C35.3655 65.987 -0.288506 63.7289 9.97581 58.7636C18.6564 54.5676 25.7144 55.0436 25.7144 55.0436H25.7141ZM58.3175 73.2676C77.0794 63.5184 68.4046 54.1496 62.3499 55.4119C60.8657 55.7206 60.2041 55.9881 60.2041 55.9881C60.2041 55.9881 60.7551 55.1253 61.8073 54.7518C73.7854 50.5405 82.9975 67.172 57.9405 73.759C57.9405 73.7593 58.2309 73.4999 58.3175 73.2676Z" fill="#5382A1"/>
<path id="Vector_4" d="M47.0063 0.000289532C47.0063 0.000289532 57.3969 10.3946 37.1514 26.3772C20.9168 39.1985 33.4494 46.5086 37.1447 54.8609C27.6682 46.3109 20.7136 38.7841 25.3794 31.7791C32.2272 21.4957 51.1985 16.5102 47.0063 0" fill="#E76F00"/>
<path id="Vector_5" d="M27.5579 99.6856C45.5667 100.839 73.2212 99.046 73.8761 90.5248C73.8761 90.5248 72.6172 93.7554 58.9928 96.3206C43.6219 99.2131 24.6643 98.8755 13.4202 97.0216C13.4205 97.0216 15.722 98.9267 27.5582 99.6856" fill="#5382A1"/>
</g>
</svg>
