<svg width="100" height="100" viewBox="0 0 100 100" fill="none" xmlns="http://www.w3.org/2000/svg">
<g id="Group 21">
<path id="Vector" d="M95.8225 0H47.6677C47.6677 5.76524 49.958 11.2943 54.0346 15.371C58.1112 19.4476 63.6403 21.7379 69.4055 21.7379H78.2762V30.3027C78.284 42.2972 88.0054 52.019 99.9999 52.0268V4.17744C99.9999 1.87096 98.1301 0 95.8225 0Z" fill="#2684FF"/>
<path id="Vector_2" d="M71.9956 23.9938H23.8411C23.8485 35.9883 33.5699 45.7101 45.5648 45.7179H54.4355V54.3101C54.4508 66.3046 64.1788 76.0197 76.1734 76.0197V28.172C76.1734 25.8648 74.3028 23.9942 71.9956 23.9942V23.9938Z" fill="url(#paint0_linear_1_78)"/>
<path id="Vector_3" d="M48.1548 47.9739H0C0 59.9795 9.73272 69.7118 21.7378 69.7118H30.6363V78.2762C30.6442 90.2598 40.3487 99.9773 52.3326 100V52.1518C52.3326 49.8445 50.4621 47.9739 48.1548 47.9739Z" fill="url(#paint1_linear_1_78)"/>
</g>
<defs>
<linearGradient id="paint0_linear_1_78" x1="75.143" y1="24.0776" x2="54.7832" y2="45.3222" gradientUnits="userSpaceOnUse">
<stop offset="0.18" stop-color="#0052CC"/>
<stop offset="1" stop-color="#2684FF"/>
</linearGradient>
<linearGradient id="paint1_linear_1_78" x1="52.6807" y1="48.2107" x2="29.1294" y2="71.382" gradientUnits="userSpaceOnUse">
<stop offset="0.18" stop-color="#0052CC"/>
<stop offset="1" stop-color="#2684FF"/>
</linearGradient>
</defs>
</svg>
