<svg width="80" height="80" viewBox="0 0 80 80" fill="none" xmlns="http://www.w3.org/2000/svg">
<g id="LinkedIn 1">
<path id="Vector" fill-rule="evenodd" clip-rule="evenodd" d="M16.6667 10H63.3333C67.0153 10 70 12.9848 70 16.6667V63.3333C70 67.0153 67.0153 70 63.3333 70H16.6667C12.9848 70 10 67.0153 10 63.3333V16.6667C10 12.9848 12.9848 10 16.6667 10ZM26.6667 60C27.5871 60 28.3333 59.2537 28.3333 58.3333V35C28.3333 34.0797 27.5871 33.3333 26.6667 33.3333H21.6667C20.7462 33.3333 20 34.0797 20 35V58.3333C20 59.2537 20.7462 60 21.6667 60H26.6667ZM24.1667 30C21.4052 30 19.1667 27.7614 19.1667 25C19.1667 22.2386 21.4052 20 24.1667 20C26.9281 20 29.1667 22.2386 29.1667 25C29.1667 27.7614 26.9281 30 24.1667 30ZM58.3333 60C59.2537 60 60 59.2537 60 58.3333V43C60.1083 37.7027 56.192 33.1817 50.9333 32.5333C47.2567 32.1975 43.6943 33.9147 41.6667 37V35C41.6667 34.0797 40.9203 33.3333 40 33.3333H35C34.0797 33.3333 33.3333 34.0797 33.3333 35V58.3333C33.3333 59.2537 34.0797 60 35 60H40C40.9203 60 41.6667 59.2537 41.6667 58.3333V45.8333C41.6667 43.072 43.9053 40.8333 46.6667 40.8333C49.428 40.8333 51.6667 43.072 51.6667 45.8333V58.3333C51.6667 59.2537 52.413 60 53.3333 60H58.3333Z" fill="#736666"/>
</g>
</svg>
